<?xml version="1.0" encoding="UTF-8" standalone="no"?>
<svg
   xmlns:dc="http://purl.org/dc/elements/1.1/"
   xmlns:cc="http://creativecommons.org/ns#"
   xmlns:rdf="http://www.w3.org/1999/02/22-rdf-syntax-ns#"
   xmlns:svg="http://www.w3.org/2000/svg"
   xmlns="http://www.w3.org/2000/svg"
   xmlns:sodipodi="http://sodipodi.sourceforge.net/DTD/sodipodi-0.dtd"
   xmlns:inkscape="http://www.inkscape.org/namespaces/inkscape"
   width="52.437019mm"
   height="10.496139mm"
   viewBox="0 0 52.437019 10.496139"
   version="1.1"
   id="svg8"
   inkscape:version="1.0.1 (3bc2e813f5, 2020-09-07)"
   sodipodi:docname="dragme.svg">
  <defs
     id="defs2" />
  <sodipodi:namedview
     id="base"
     pagecolor="#ffffff"
     bordercolor="#666666"
     borderopacity="1.0"
     inkscape:pageopacity="0.0"
     inkscape:pageshadow="2"
     inkscape:zoom="2.8"
     inkscape:cx="161.06885"
     inkscape:cy="57.571826"
     inkscape:document-units="mm"
     inkscape:current-layer="text835"
     inkscape:document-rotation="0"
     showgrid="false"
     inkscape:window-width="1920"
     inkscape:window-height="1051"
     inkscape:window-x="-9"
     inkscape:window-y="-9"
     inkscape:window-maximized="1" />
  <metadata
     id="metadata5">
    <rdf:RDF>
      <cc:Work
         rdf:about="">
        <dc:format>image/svg+xml</dc:format>
        <dc:type
           rdf:resource="http://purl.org/dc/dcmitype/StillImage" />
        <dc:title />
      </cc:Work>
    </rdf:RDF>
  </metadata>
  <g
     inkscape:label="Layer 1"
     inkscape:groupmode="layer"
     id="layer1"
     transform="translate(-64.61426,-104.79312)">
    <g
       aria-label="drag me around!"
       id="text835"
       style="font-size:10.5833px;line-height:1.25;font-family:Daniel;-inkscape-font-specification:Daniel;text-align:center;text-anchor:middle;fill:#ffffff;fill-opacity:1;stroke-width:0.264583">
      <path
         d="m 67.888476,108.35397 q -0.358289,0.15709 -1.141014,0.40789 -0.735872,0.23703 -0.892968,0.29215 -0.661458,0.24529 -0.782726,0.40239 0.0028,0.0772 0.06339,0.11024 0.14056,0.0799 0.592556,0.0799 0.157096,0 0.724848,-0.12126 0.760676,-0.15986 1.394573,-0.33349 -0.03307,0.17363 -0.143316,0.23151 -0.115755,0.0634 -0.851627,0.28112 -0.760676,0.226 -0.876431,0.226 -0.03859,0 -0.259071,0.0193 -0.21773,0.0165 -0.256315,0.0165 -0.225998,0 -0.507118,-0.10749 -0.338997,-0.12953 -0.338997,-0.3197 0,-0.24254 0.151584,-0.339 0.02481,-0.0138 0.341753,-0.15985 0.664214,-0.30041 1.113454,-0.39412 0.151585,-0.0331 0.391363,-0.1378 0.272851,-0.12403 0.38585,-0.1571 l 0.314193,-0.0606 q 0.157096,-0.0331 0.275607,-0.15434 -0.07717,-0.97841 -0.07717,-2.41157 0,-0.8158 0.12678,-0.85989 0.10473,0.0469 0.135047,0.0854 0.05237,0.0689 0.06339,0.25356 0,-0.008 0,-0.008 -0.0028,0 -0.0028,0.6339 l 0.0028,1.85484 q 0,0.32246 0.05236,0.66973 z"
         style="font-size:5.64444px;fill:#ffffff;fill-opacity:1;stroke-width:0.264583"
         id="path834" />
      <path
         d="m 70.666599,108.56343 -0.08819,0.0799 q -0.289388,-0.0909 -0.44924,-0.0909 -0.01102,0 -0.02205,0 -0.206705,0.011 -0.303168,0.011 h -0.220486 q -0.0055,0 -0.192925,0.0606 -0.118511,0.008 -0.350022,0.0606 -0.369313,0.16261 -0.440971,0.57327 -0.03032,0.16261 -0.03032,0.28663 0,0.0331 0.0028,0.0662 0.02205,0.30592 0.02205,0.36104 -0.06339,0.0165 -0.203949,0.0331 -0.07717,-0.14882 -0.07717,-0.2067 0,-0.0303 0.01378,-0.1571 0.0083,-0.12678 0.0083,-0.17087 0,-0.23151 0.20395,-0.79651 0.0689,-0.14332 0.198437,-0.23427 0.28112,-0.19292 1.03904,-0.19292 0.760677,0.003 0.890212,0.20119 z"
         style="font-size:5.64444px;fill:#ffffff;fill-opacity:1;stroke-width:0.264583"
         id="path836" />
      <path
         d="m 73.601818,109.98281 q -0.05788,0.0799 -0.126779,0.0799 -0.0441,0 -0.297656,-0.26458 -0.253559,-0.26734 -0.338997,-0.26734 0,0 0,0 0,0.006 -0.600824,0.23151 -0.614605,0.22875 -0.782725,0.22875 -0.137804,0 -0.305925,-0.13504 -0.16812,-0.13505 -0.16812,-0.25356 0,-0.30593 0.669726,-0.71383 0.628385,-0.38585 0.959114,-0.38585 0.137803,0 0.248046,0.1571 v 0.11851 q -0.05512,0.0799 -0.126779,0.0799 -0.01378,0 -0.09646,-0.0358 -0.07993,-0.0358 -0.09646,-0.0358 -0.110243,0 -0.504362,0.226 -0.374826,0.21221 -0.501605,0.31695 -0.12678,0.11024 -0.162609,0.2508 0.09646,0.0909 0.228754,0.0909 0.0689,0 0.664214,-0.22876 0.592556,-0.23151 0.71658,-0.23151 0.181901,0 0.261827,0.091 0.01929,0.022 0.140559,0.24804 0.09095,0.17088 0.220486,0.30868 z"
         style="font-size:5.64444px;fill:#ffffff;fill-opacity:1;stroke-width:0.264583"
         id="path838" />
      <path
         d="m 76.206309,110.58639 q 0,0.57877 -0.278364,1.14652 -0.319704,0.63941 -0.873675,0.96463 -0.30868,0.18466 -1.237477,0.18466 -0.148828,0 -0.440972,-0.0606 -0.2949,-0.0634 -0.44924,-0.12402 -0.21773,-0.0854 -0.355534,-0.21773 -0.09371,-0.0882 -0.179145,-0.28663 -0.08268,-0.19568 -0.08268,-0.32522 0,-0.37207 0.80753,-0.76343 0.562239,-0.2701 1.292599,-0.46578 0.529166,-0.14331 1.383549,-0.24253 l 0.06063,-0.0303 q 0.0028,-0.0303 0.0028,-0.0606 0,-0.0248 -0.05237,-0.41617 -0.01654,-0.11851 -0.129535,-0.40239 -0.129536,-0.32521 -0.192926,-0.32521 0.0083,0 0.0083,0.003 0,0.0165 -0.314193,0.12127 -0.37207,0.12402 -0.529166,0.12402 -0.223242,0 -0.38585,-0.0772 -0.214974,-0.10197 -0.214974,-0.29214 0,-0.0634 0.01929,-0.17915 l 0.02756,-0.14607 0.110243,-0.13229 q 0.129535,-0.0717 0.391362,-0.16261 0.292144,-0.10473 0.394119,-0.10473 h 0.788237 l 0.04134,0.16812 -0.121267,0.10473 q -0.07717,-0.006 -0.151584,-0.006 -0.964626,0 -1.212673,0.38034 0.137804,0.16261 0.366558,0.16261 0.09095,0 0.51263,-0.21222 0.380338,-0.19017 0.380338,-0.20946 0,-0.003 -0.0028,-0.003 0.146072,0 0.270096,0.33349 0.347265,0.9095 0.347265,1.55167 z m -0.316949,0.0661 q 0,-0.11575 -0.04685,-0.17639 h -0.115755 q -0.06063,0.0303 -0.228754,0.17364 -0.192925,0.0248 -0.443728,0.0799 -1.190624,0.26458 -2.011934,0.70556 -0.388607,0.21221 -0.388607,0.53743 0,0.39136 0.840603,0.59531 0.267339,0.0662 0.537434,0.0662 0.471289,0 0.752409,-0.13229 0.09922,-0.0854 0.176388,-0.13229 0.05237,-0.0331 0.192926,-0.13505 0.30868,-0.23978 0.534678,-0.74965 0.201193,-0.45476 0.201193,-0.83234 z"
         style="font-size:5.64444px;fill:#ffffff;fill-opacity:1;stroke-width:0.264583"
         id="path840" />
      <path
         d="m 83.203981,108.98511 q 0,0.0799 -0.01929,0.52089 -0.01929,0.44373 -0.01929,0.5209 -0.07993,0.006 -0.157096,0.0744 -0.201194,-0.16261 -0.201194,-0.50161 0,-0.0358 0.01654,-0.25631 0.01929,-0.22049 0.01929,-0.25907 0,-0.16537 -0.05236,-0.26183 h -0.09646 q -0.121267,0 -0.931553,0.49885 l -0.804773,0.49885 q -0.121268,0 -0.327973,-0.15434 -0.0055,-0.0248 -0.0055,-0.0551 0,-0.0331 0.0248,-0.23151 0.02481,-0.19844 0.02481,-0.23427 0,-0.17363 -0.07717,-0.28388 h -0.09371 q -0.124023,0 -1.20716,0.98943 h -0.159853 q -0.07166,-0.10748 -0.07166,-0.15709 0,-0.0772 0.358289,-0.30593 0.05237,-0.0331 0.628385,-0.55672 0.43546,-0.39412 0.675238,-0.39412 0.259071,0 0.259071,0.59807 0,0.0496 -0.0055,0.1626 -0.01102,0.113 -0.01102,0.16537 0.101975,0.022 0.107487,0.0276 -0.0028,0.003 -0.01378,0.003 0.05512,0 0.94809,-0.53744 0.06615,-0.0606 0.21773,-0.1571 0.520898,-0.22599 0.713823,-0.22599 0.261827,0 0.261827,0.51263 z"
         style="font-size:5.64444px;fill:#ffffff;fill-opacity:1;stroke-width:0.264583"
         id="path842" />
      <path
         d="m 86.155736,109.845 q -0.101975,0.12127 -0.264583,0.12127 h -0.97565 q -0.338997,0 -0.755165,-0.10198 -0.545702,-0.13229 -0.61736,-0.33348 -0.07993,-0.226 -0.07993,-0.4327 0,-0.41617 0.35829,-0.63941 0.303168,-0.19293 0.738628,-0.19293 0.374826,0 0.595312,0.16261 0.220486,0.15985 0.220486,0.43822 0,0.15434 -0.529166,0.33899 -0.438216,0.1571 -0.636653,0.1571 -0.02481,0 -0.0441,-0.003 0,0.0386 -0.06063,0.0937 0.03307,0.0551 0.32246,0.12678 0.259071,0.0661 0.369314,0.0661 h 0.876432 q 0,0 0,0 0,0.003 0.330729,0.0496 0.104731,0.0662 0.151584,0.14883 z m -1.135503,-1.09967 q -0.15434,-0.1571 -0.496093,-0.1571 -0.239778,0 -0.443728,0.0937 -0.264583,0.12127 -0.264583,0.32797 0,0.0744 0.04961,0.10473 h 0.176389 q 0.09371,0 0.507118,-0.15709 0.413411,-0.1571 0.471288,-0.21222 z"
         style="font-size:5.64444px;fill:#ffffff;fill-opacity:1;stroke-width:0.264583"
         id="path844" />
      <path
         d="m 91.384011,109.98281 q -0.05788,0.0799 -0.12678,0.0799 -0.0441,0 -0.297656,-0.26458 -0.253559,-0.26734 -0.338997,-0.26734 0,0 0,0 0,0.006 -0.600824,0.23151 -0.614605,0.22875 -0.782725,0.22875 -0.137804,0 -0.305924,-0.13504 -0.168121,-0.13505 -0.168121,-0.25356 0,-0.30593 0.669726,-0.71383 0.628385,-0.38585 0.959114,-0.38585 0.137804,0 0.248047,0.1571 v 0.11851 q -0.05512,0.0799 -0.12678,0.0799 -0.01378,0 -0.09646,-0.0358 -0.07993,-0.0358 -0.09646,-0.0358 -0.110243,0 -0.504362,0.226 -0.374826,0.21221 -0.501605,0.31695 -0.12678,0.11024 -0.162609,0.2508 0.09646,0.0909 0.228755,0.0909 0.0689,0 0.664214,-0.22876 0.592555,-0.23151 0.716579,-0.23151 0.181901,0 0.261827,0.091 0.01929,0.022 0.14056,0.24804 0.09095,0.17088 0.220486,0.30868 z"
         style="font-size:5.64444px;fill:#ffffff;fill-opacity:1;stroke-width:0.264583"
         id="path846" />
      <path
         d="m 94.065671,108.56343 -0.08819,0.0799 q -0.289388,-0.0909 -0.44924,-0.0909 -0.01103,0 -0.02205,0 -0.206705,0.011 -0.303168,0.011 h -0.220486 q -0.0055,0 -0.192925,0.0606 -0.118511,0.008 -0.350022,0.0606 -0.369314,0.16261 -0.440971,0.57327 -0.03032,0.16261 -0.03032,0.28663 0,0.0331 0.0028,0.0662 0.02205,0.30592 0.02205,0.36104 -0.06339,0.0165 -0.203949,0.0331 -0.07717,-0.14882 -0.07717,-0.2067 0,-0.0303 0.01378,-0.1571 0.0083,-0.12678 0.0083,-0.17087 0,-0.23151 0.20395,-0.79651 0.0689,-0.14332 0.198437,-0.23427 0.28112,-0.19292 1.03904,-0.19292 0.760677,0.003 0.890212,0.20119 z"
         style="font-size:5.64444px;fill:#ffffff;fill-opacity:1;stroke-width:0.264583"
         id="path848" />
      <path
         d="m 97.461154,108.98511 q 0,0.2949 -0.124024,0.50436 -0.112999,0.19017 -0.802017,0.37482 -0.614605,0.16537 -0.93431,0.16537 -0.374826,0 -0.741384,-0.17915 -0.443728,-0.22048 -0.443728,-0.54845 0,-0.14608 0.168121,-0.29766 0.148828,-0.10749 0.44924,-0.40514 0.198437,-0.24254 0.727604,-0.39137 0.446484,-0.12678 0.83509,-0.12678 0.104731,0 0.314193,0.091 0.209461,0.0965 0.286631,0.17639 0.07717,0.0854 0.170877,0.30868 0.09371,0.22049 0.09371,0.32798 z m -0.28112,-0.0221 q 0,-0.20395 -0.245291,-0.38861 -0.225998,-0.17363 -0.446484,-0.17363 -0.04134,0 -0.642165,0.11851 -0.23151,0.0469 -0.421679,0.17914 -0.650434,0.46303 -0.650434,0.63941 0,0.14883 0.355534,0.2701 0.303168,0.10473 0.493337,0.10473 0.283876,0 0.796505,-0.11576 0.468533,-0.10473 0.66697,-0.31694 0.09371,-0.0965 0.09371,-0.31695 z"
         style="font-size:5.64444px;fill:#ffffff;fill-opacity:1;stroke-width:0.264583"
         id="path850" />
      <path
         d="m 100.57828,108.43665 q 0,0.11575 -0.41893,0.57877 -0.369312,0.4079 -0.548457,0.54019 -0.09095,0.0661 -0.388606,0.28664 -0.124023,0.0882 -0.380338,0.17363 -0.261827,0.0854 -0.410655,0.0854 -0.28112,0 -0.465777,-0.36105 -0.151584,-0.2949 -0.151584,-0.6146 0,-0.26459 0.110243,-0.54295 0.04134,0 0.08544,-0.0386 0.05237,0.0303 0.143316,0.11576 -0.02756,0.21773 -0.02756,0.38034 0,0.66697 0.432704,0.66697 0.418923,0 1.005967,-0.5209 0.09371,-0.0827 0.88194,-0.82407 h 0.0441 q 0.0882,0 0.0882,0.0744 z"
         style="font-size:5.64444px;fill:#ffffff;fill-opacity:1;stroke-width:0.264583"
         id="path852" />
      <path
         d="m 103.07803,108.50279 q 0,0.0579 -0.0579,0.65871 -0.0496,0.49884 -0.12127,1.08589 -0.006,0.0441 -0.0882,0.0441 -0.10748,0 -0.17639,-0.2701 -0.0524,-0.20671 -0.0524,-0.36656 0,-0.0606 0.0689,-0.43546 0.0717,-0.37482 0.0717,-0.4327 0,-0.16261 -0.0882,-0.16261 -0.11299,0 -0.48231,0.19568 -0.3197,0.17088 -0.46577,0.27837 -0.27837,0.20395 -0.63115,0.6146 -0.0579,0.0661 -0.22599,0.25356 -0.0662,0.0689 -0.26183,0.0717 v -0.18466 q 0,-0.12954 0.50712,-0.57051 0.40514,-0.35277 0.84887,-0.63941 0.62287,-0.40514 0.92604,-0.40514 0.0799,0 0.15434,0.0882 0.0744,0.0882 0.0744,0.17639 z"
         style="font-size:5.64444px;fill:#ffffff;fill-opacity:1;stroke-width:0.264583"
         id="path854" />
      <path
         d="m 106.77669,108.35397 q -0.35829,0.15709 -1.14102,0.40789 -0.73587,0.23703 -0.89297,0.29215 -0.66145,0.24529 -0.78272,0.40239 0.003,0.0772 0.0634,0.11024 0.14056,0.0799 0.59255,0.0799 0.1571,0 0.72485,-0.12126 0.76068,-0.15986 1.39458,-0.33349 -0.0331,0.17363 -0.14332,0.23151 -0.11576,0.0634 -0.85163,0.28112 -0.76067,0.226 -0.87643,0.226 -0.0386,0 -0.25907,0.0193 -0.21773,0.0165 -0.25631,0.0165 -0.226,0 -0.50712,-0.10749 -0.339,-0.12953 -0.339,-0.3197 0,-0.24254 0.15158,-0.339 0.0248,-0.0138 0.34176,-0.15985 0.66421,-0.30041 1.11345,-0.39412 0.15159,-0.0331 0.39136,-0.1378 0.27286,-0.12403 0.38585,-0.1571 l 0.3142,-0.0606 q 0.15709,-0.0331 0.2756,-0.15434 -0.0772,-0.97841 -0.0772,-2.41157 0,-0.8158 0.12678,-0.85989 0.10473,0.0469 0.13505,0.0854 0.0524,0.0689 0.0634,0.25356 0,-0.008 0,-0.008 -0.003,0 -0.003,0.6339 l 0.003,1.85484 q 0,0.32246 0.0524,0.66973 z"
         style="font-size:5.64444px;fill:#ffffff;fill-opacity:1;stroke-width:0.264583"
         id="path856" />
      <path
         d="m 108.81067,104.96951 q 0,0.0165 -0.1571,0.73311 -0.0606,0.27837 -0.25907,1.1796 -0.0744,0.14607 -0.18741,0.46027 l -0.22325,1.56545 q -0.006,0.0413 -0.0854,0.0413 -0.0909,0 -0.16537,-0.18742 -0.0661,-0.15985 -0.0661,-0.27285 0,-0.10473 0.23702,-0.80477 0.006,-0.0165 0.006,-0.20946 0,-0.0799 0.0551,-0.19568 0.0689,-0.13781 0.0772,-0.19293 l 0.12127,-0.64492 q 0.11024,-0.5898 0.25631,-1.2485 0.011,-0.0551 0.0827,-0.28388 0.0606,-0.0468 0.14607,-0.11575 0.16261,0.0661 0.16261,0.17639 z m -0.88195,4.66879 q -0.0276,0.14607 -0.0799,0.37758 -0.27285,-0.0689 -0.2949,-0.0799 -0.0358,-0.0248 -0.11851,-0.1819 0.1819,-0.23151 0.26458,-0.23151 0.0386,0 0.22875,0.11576 z"
         style="font-size:5.64444px;fill:#ffffff;fill-opacity:1;stroke-width:0.264583"
         id="path858" />
    </g>
    <path
       style="fill:#ffffff;fill-opacity:1;stroke:#ffffe1;stroke-width:0.6;stroke-miterlimit:4;stroke-dasharray:none;stroke-opacity:1"
       id="path855"
       d="m 107.13436,111.69426 c 0.95362,0.43508 1.96836,0.71405 2.96969,1.01592 1.3462,0.48155 2.728,0.83411 4.14171,1.04128 0.42795,0.0625 0.8562,0.0946 1.28806,0.0961 0,0 0.29909,-0.21739 0.29909,-0.21739 v 0 c -0.43238,0.003 -0.86078,-0.0271 -1.28949,-0.0885 -1.41408,-0.20241 -2.79713,-0.54944 -4.14205,-1.03444 -0.9953,-0.30238 -2.00314,-0.58301 -2.95196,-1.0147 0,0 -0.31505,0.20172 -0.31505,0.20172 z" />
    <path
       style="fill:#ffffff;fill-opacity:1;stroke:#ffffff;stroke-width:0.600001;stroke-opacity:1"
       id="path857"
       d="m 114.96266,111.56085 c 0.48872,0.53213 0.96724,1.05977 1.32984,1.68716 0.14994,0.28542 0.2278,0.62181 -0.06,0.85249 -0.0568,0.0456 -0.11738,0.1038 -0.19013,0.10785 -0.043,0.002 0.0531,-0.0678 0.0797,-0.1017 -0.63397,0.13651 -1.24977,0.34032 -1.87682,0.50458 -0.31546,0.10388 -0.16429,0.045 -0.45431,0.1746 0,0 -0.29166,0.23164 -0.29166,0.23164 v 0 c 0.28746,-0.13434 0.13724,-0.0734 0.45157,-0.18065 0.62753,-0.16287 1.24174,-0.37219 1.87743,-0.50207 0.67211,-0.31191 1.17934,-0.44899 0.78421,-1.27154 -0.36446,-0.62891 -0.8437,-1.15777 -1.33029,-1.69482 0,0 -0.31955,0.19246 -0.31955,0.19246 z" />
  </g>
</svg>
