<?xml version="1.0" encoding="UTF-8" standalone="no"?>
<svg
   xmlns:dc="http://purl.org/dc/elements/1.1/"
   xmlns:cc="http://creativecommons.org/ns#"
   xmlns:rdf="http://www.w3.org/1999/02/22-rdf-syntax-ns#"
   xmlns:svg="http://www.w3.org/2000/svg"
   xmlns="http://www.w3.org/2000/svg"
   xmlns:sodipodi="http://sodipodi.sourceforge.net/DTD/sodipodi-0.dtd"
   xmlns:inkscape="http://www.inkscape.org/namespaces/inkscape"
   width="52.437019mm"
   height="10.496139mm"
   viewBox="0 0 52.437019 10.496139"
   version="1.1"
   id="svg8"
   inkscape:version="1.0.1 (3bc2e813f5, 2020-09-07)"
   sodipodi:docname="dragme.svg">
  <defs
     id="defs2" />
  <sodipodi:namedview
     id="base"
     pagecolor="#ffffff"
     bordercolor="#666666"
     borderopacity="1.0"
     inkscape:pageopacity="0.0"
     inkscape:pageshadow="2"
     inkscape:zoom="2.8"
     inkscape:cx="161.06885"
     inkscape:cy="57.571826"
     inkscape:document-units="mm"
     inkscape:current-layer="layer1"
     inkscape:document-rotation="0"
     showgrid="false"
     inkscape:window-width="1920"
     inkscape:window-height="1051"
     inkscape:window-x="-9"
     inkscape:window-y="-9"
     inkscape:window-maximized="1" />
  <metadata
     id="metadata5">
    <rdf:RDF>
      <cc:Work
         rdf:about="">
        <dc:format>image/svg+xml</dc:format>
        <dc:type
           rdf:resource="http://purl.org/dc/dcmitype/StillImage" />
        <dc:title></dc:title>
      </cc:Work>
    </rdf:RDF>
  </metadata>
  <g
     inkscape:label="Layer 1"
     inkscape:groupmode="layer"
     id="layer1"
     transform="translate(-64.61426,-104.79312)">
    <text
       xml:space="preserve"
       style="font-size:10.5833px;line-height:1.25;font-family:Daniel;-inkscape-font-specification:Daniel;text-align:center;text-anchor:middle;fill:#ffffff;fill-opacity:1;stroke-width:0.264583"
       x="86.745537"
       y="109.99107"
       id="text835"><tspan
         sodipodi:role="line"
         id="tspan833"
         x="86.745537"
         y="109.99107"
         style="font-size:5.64444px;fill:#ffffff;fill-opacity:1;stroke-width:0.264583">drag me around!</tspan></text>
    <path
       style="fill:#ffffff;fill-opacity:1;stroke:#ffffe1;stroke-width:0.6;stroke-miterlimit:4;stroke-dasharray:none;stroke-opacity:1"
       id="path855"
       d="m 107.13436,111.69426 c 0.95362,0.43508 1.96836,0.71405 2.96969,1.01592 1.3462,0.48155 2.728,0.83411 4.14171,1.04128 0.42795,0.0625 0.8562,0.0946 1.28806,0.0961 0,0 0.29909,-0.21739 0.29909,-0.21739 v 0 c -0.43238,0.003 -0.86078,-0.0271 -1.28949,-0.0885 -1.41408,-0.20241 -2.79713,-0.54944 -4.14205,-1.03444 -0.9953,-0.30238 -2.00314,-0.58301 -2.95196,-1.0147 0,0 -0.31505,0.20172 -0.31505,0.20172 z" />
    <path
       style="fill:#ffffff;fill-opacity:1;stroke:#ffffff;stroke-width:0.600001;stroke-opacity:1"
       id="path857"
       d="m 114.96266,111.56085 c 0.48872,0.53213 0.96724,1.05977 1.32984,1.68716 0.14994,0.28542 0.2278,0.62181 -0.06,0.85249 -0.0568,0.0456 -0.11738,0.1038 -0.19013,0.10785 -0.043,0.002 0.0531,-0.0678 0.0797,-0.1017 -0.63397,0.13651 -1.24977,0.34032 -1.87682,0.50458 -0.31546,0.10388 -0.16429,0.045 -0.45431,0.1746 0,0 -0.29166,0.23164 -0.29166,0.23164 v 0 c 0.28746,-0.13434 0.13724,-0.0734 0.45157,-0.18065 0.62753,-0.16287 1.24174,-0.37219 1.87743,-0.50207 0.67211,-0.31191 1.17934,-0.44899 0.78421,-1.27154 -0.36446,-0.62891 -0.8437,-1.15777 -1.33029,-1.69482 0,0 -0.31955,0.19246 -0.31955,0.19246 z" />
  </g>
</svg>
